<?xml version="1.0" encoding="utf-8"?>
<!-- Generator: Adobe Illustrator 18.0.0, SVG Export Plug-In . SVG Version: 6.00 Build 0)  -->
<!DOCTYPE svg PUBLIC "-//W3C//DTD SVG 1.1//EN" "http://www.w3.org/Graphics/SVG/1.1/DTD/svg11.dtd">
<svg version="1.1" id="Layer_1" xmlns="http://www.w3.org/2000/svg" xmlns:xlink="http://www.w3.org/1999/xlink" x="0px" y="0px"
	 viewBox="0 0 217.7 57.5" enable-background="new 0 0 217.7 57.5" xml:space="preserve"> 
<defs>
  <style type="text/css">@import url(http://fonts.googleapis.com/css?family=Oxygen);</style>
</defs>
<path fill="#5BA566" stroke="#78CE82" stroke-width="2" stroke-miterlimit="10" d="M21.8,22.9H3.3h2.9c0,6.8,7,12.2,15.6,12.2
	s15.6-5.5,15.6-12.2h2.9H21.8z"/>
<rect x="19.3" y="14.1" fill="#E59A23" width="2.5" height="2.5"/>
<rect x="19.3" y="18.1" fill="#EAEA75" width="2.5" height="2.5"/>
<rect x="23.3" y="10.1" fill="#E59A23" width="2.5" height="2.5"/>
<rect x="23.3" y="14.1" fill="#EAEA75" width="2.5" height="2.5"/>
<g>
	<g>
		<rect x="47.4" y="12.9" fill="#78CE82" width="6.2" height="24.3"/>
		<rect x="47.4" y="3.4" fill="#78CE82" width="6.2" height="6.2"/>
	</g>
	<g>
		<rect x="102" y="12.9" fill="#78CE82" width="6.2" height="24.3"/>
		<rect x="102" y="3.4" fill="#78CE82" width="6.2" height="6.2"/>
	</g>
	<path fill="#78CE82" d="M99.3,21.4l0,15.7h-6.2V22.1c0-3.7-5.2-4.9-8-0.1v15.2h-6.2V3.4h6.2v12.2C88.3,10.5,99.4,13.3,99.3,21.4z"
		/>
	<polygon fill="#E59A23" points="127.4,12.9 133.6,12.9 124.9,24.3 133.6,37.2 127.4,37.2 118.9,25.7 118.9,37.2 112.8,37.2 
		112.8,3.4 118.9,3.4 118.9,22.6 	"/>
	<polygon fill="#E59A23" points="177.9,12.9 171.7,12.9 167.4,30.1 163.2,12.9 157,12.9 163.2,37.2 171.7,37.2 174.8,23 177.9,37.2 
		186.5,37.2 192.7,12.9 186.5,12.9 182.7,30.1 	"/>
	<path fill="#78CE82" d="M66.8,31c-3.1-0.1-5.1-2.7-5.1-6c0-3.3,2-5.9,5.1-6c2.5-0.1,3.4,0.9,4.2,2.3l5.2-1
		c-1.4-4.8-4.7-7.3-9.4-7.3c-5.8,0-10.6,5.4-10.6,12c0.1,6.7,4.8,12,10.6,12c4.7,0,8-2.5,9.4-7.3l-5.2-1C70.3,30.1,69.3,31,66.8,31z
		"/>
	<path fill="#E59A23" d="M145.7,12.9c-5.9,0-9,2.7-10.4,7.5l5.2,1c0.6-1.8,1.7-2.9,4.8-2.8c3.6,0.1,3.9,2.1,3.9,4.5
		c0,0-14.1-1.5-13.9,7.9c0.2,9.4,14.7,5.6,15,4.3v1.8h5v-12C155.3,18.5,155.1,12.9,145.7,12.9z M140.1,30c1.5-4.4,9.2-2.9,9.2-2.9
		C150,34.4,138.7,34.3,140.1,30z"/>
	<path fill="#E59A23" d="M204.7,12.9c-5.9,0-9,2.7-10.4,7.5l5.2,1c0.6-1.8,1.7-2.9,4.8-2.8c3.6,0.1,3.9,2.1,3.9,4.5
		c0,0-14.1-1.5-13.9,7.9c0.2,9.4,14.7,5.6,15,4.3v1.8h5v-12C214.3,18.5,214.1,12.9,204.7,12.9z M199.1,30c1.5-4.4,9.2-2.9,9.2-2.9
		C209,34.4,197.7,34.3,199.1,30z"/>
</g>
<text transform="matrix(1 0 0 1 47.3697 54.1031)" fill="#FFFFFF" font-family="'Oxygen'" font-size="14">fusion shabu &amp; sushi</text>
</svg>
