<?xml version="1.0" encoding="utf-8"?>
<!-- Generator: Adobe Illustrator 15.1.0, SVG Export Plug-In  -->
<!DOCTYPE svg PUBLIC "-//W3C//DTD SVG 1.1//EN" "http://www.w3.org/Graphics/SVG/1.1/DTD/svg11.dtd" [
	<!ENTITY ns_flows "http://ns.adobe.com/Flows/1.0/">
]>
<svg version="1.1"
	 xmlns="http://www.w3.org/2000/svg" xmlns:xlink="http://www.w3.org/1999/xlink" xmlns:a="http://ns.adobe.com/AdobeSVGViewerExtensions/3.0/"
	 x="0px" y="0px" width="1214px" height="1224px" viewBox="-11.645 -15.798 1214 1224"
	 overflow="visible" enable-background="new -11.645 -15.798 1214 1224" xml:space="preserve">
<defs>
</defs>
<circle fill="#B03212" cx="596" cy="596" r="596"/>
<path fill="#FFFFFF" d="M354.38,1071.621l7.276,2.842l-2.253,28.512l0.144,0.057l18.101-22.322l6.843,2.674l-1.316,28.877
	l0.144,0.057l17.308-22.631l6.844,2.674l-24.359,29.84l-6.555-2.561l0.956-29.018l-0.144-0.057l-18.101,22.32l-6.987-2.729
	L354.38,1071.621z"/>
<path fill="#FFFFFF" d="M407.247,1092.281l7.528,2.084l0.667,28.596l0.149,0.043l15.731-24.055l7.081,1.961l1.636,28.865
	l0.149,0.041l14.912-24.281l7.081,1.961l-21.19,32.174l-6.783-1.879l-2.009-28.969l-0.149-0.041l-15.731,24.055l-7.23-2.004
	L407.247,1092.281z"/>
<path fill="#FFFFFF" d="M461.941,1107.441l7.701,1.307l3.578,28.375l0.153,0.027l13.196-25.531l7.244,1.23l4.569,28.545l0.152,0.025
	l12.358-25.672l7.244,1.229l-17.799,34.162l-6.938-1.178l-4.951-28.609l-0.152-0.025l-13.197,25.529l-7.396-1.254L461.941,1107.441z
	"/>
<path fill="#FFFFFF" d="M515.959,1148.25c0.294-2.77,2.847-4.83,5.615-4.535c2.769,0.293,4.83,2.846,4.536,5.615
	c-0.295,2.768-2.847,4.83-5.616,4.535S515.664,1151.017,515.959,1148.25z"/>
<path fill="#FFFFFF" d="M532.513,1118.056l8.029,0.473l9.204,29.209l0.155,0.01l12.028-27.959l7.489,0.441l-19.991,43.449
	c-2.843,6.186-5.492,10.369-13.135,9.918c-2.085-0.123-4.233-0.48-6.118-1.367l1.222-6.281c1.281,0.617,2.729,1.014,4.119,1.096
	c4.401,0.258,5.854-2.059,7.458-5.605l2.58-5.658L532.513,1118.056z"/>
<path fill="#FFFFFF" d="M581.272,1141.128c0.104,6.418,6.127,10.576,12.546,10.471c4.253-0.068,7.312-2.283,9.964-5.652l5.324,3.936
	c-3.785,5.09-9.081,7.65-16.119,7.764c-11.6,0.189-19.004-8.045-19.18-18.949c-0.178-10.98,7.653-19.385,18.635-19.562
	c12.914-0.209,18.023,9.609,18.176,19.045l0.04,2.475L581.272,1141.128z M603.145,1135.205c-0.253-6.105-3.729-10.613-10.767-10.5
	c-6.882,0.111-11.274,5.984-11.195,10.855L603.145,1135.205z"/>
<path fill="#FFFFFF" d="M616.479,1097.378l6.946-0.453l3.807,58.348l-6.946,0.453L616.479,1097.378z"/>
<path fill="#FFFFFF" d="M632.747,1118.361l6.912-0.82l0.619,5.223l0.153-0.018c2.224-4.236,7.028-7.064,11.943-7.646
	c11.289-1.34,19.501,6.176,20.776,16.926c1.293,10.906-5.027,19.988-16.24,21.318c-5.222,0.619-10.496-1.168-13.4-4.641l-0.153,0.02
	l3.188,26.879l-6.912,0.818L632.747,1118.361z M641.817,1135.742c0.875,7.373,6.111,12.125,13.484,11.252
	c7.372-0.875,11.352-6.721,10.477-14.094c-0.874-7.373-6.11-12.125-13.483-11.25
	C644.923,1122.525,640.943,1128.371,641.817,1135.742z"/>
<path fill="#FFFFFF" d="M685.468,1143.554c-0.497-2.74,1.372-5.438,4.111-5.934c2.74-0.496,5.437,1.373,5.933,4.111
	c0.497,2.74-1.372,5.438-4.111,5.934S685.964,1146.292,685.468,1143.554z"/>
<path fill="#FFFFFF" d="M726.477,1112.132c-3.1-2.057-6.052-2.799-9.817-1.922c-7.382,1.721-9.761,8.547-8.199,15.25
	s7.344,11.074,14.349,9.441c3.766-0.877,6.086-2.846,7.731-6.01l5.943,3.697c-2.627,4.742-7.079,7.447-12.276,8.658
	c-10.996,2.561-20.451-3.256-23.013-14.252s3.145-20.584,14.292-23.182c5.196-1.211,10.589-0.561,15.023,2.455L726.477,1112.132z"/>
<path fill="#FFFFFF" d="M749.63,1094.341c10.418-3.223,21.156,2.441,24.311,12.637c3.154,10.197-2.51,20.936-12.927,24.158
	c-10.418,3.223-21.156-2.441-24.311-12.637S739.213,1097.566,749.63,1094.341z M759.094,1124.929
	c7.093-2.193,9.948-8.664,7.754-15.756c-2.194-7.094-8.204-10.818-15.297-8.625c-7.093,2.195-9.949,8.664-7.755,15.756
	C745.99,1123.398,752.001,1127.125,759.094,1124.929z"/>
<path fill="#FFFFFF" d="M773.883,1087.939l5.996-2.5l2.203,5.281l0.143-0.059c-0.191-2.268,2.222-8.135,8.289-10.664
	c4.997-2.084,9.316-1.371,13.185,1.875c0.486-5.062,4.019-9.051,8.087-10.746c10.422-4.348,15.944,2.064,19.101,9.631l8.216,19.701
	l-6.424,2.68l-7.859-18.846c-2.144-5.139-5.179-9.404-11.389-6.812c-6.21,2.59-6.881,7.812-4.38,13.809l7.71,18.488l-6.424,2.678
	l-7.383-17.701c-2.68-6.424-5.513-10.605-11.723-8.016c-4.64,1.936-7.321,7.158-4.136,14.797l7.323,17.559l-6.425,2.68
	L773.883,1087.939z"/>
<path fill="#FFFFFF" d="M1023.435,852.328h-0.048c0,0-0.061,0.027-0.074,0.051L1023.435,852.328z M709.844,649.453
	c0.049,0.025,0.061,0.035,0.12,0.035c0.037,0.016,0.097,0.016,0.145,0.016L709.844,649.453z M1070.568,733.574
	c-6.075-4.605-7.063-5.295-43.652-17.35c31.671-7.762,33.057-8.594,38.65-12.295c12.705-8.605,19.494-22.893,18.527-38.371
	l-0.12-1.699c-2.615-24.82-34.597-71.705-56.151-82.217c-14.201-6.787-30.006-5.834-42.446,2.543
	c-5.871,3.871-6.631,4.402-30.704,37.252c-2.339-38.383-6.859-106.061-7.958-112.391l-0.239-1.446l-0.388-1.411
	c-4.072-14.876-15.743-26.027-31.196-29.908c-25.763-6.438-93.947,12.791-112.234,31.645c-10.765,11.199-14.875,26.28-11.176,40.445
	l0.761,2.798l1.266,2.627c1.724,3.615,6.365,11.248,45.942,73.342L854,650.115c-35.406-14.512-36.793-14.551-44.146-14.611
	c-13.973-0.625-27.957,6.848-36.371,20.061l-0.157,0.24c-4.363,6.994-7.029,16.529-8.716,26.498
	c-11.404-15.395-28.582-27.703-54.646-32.814c-18.455-3.723-35.779-1.494-52.089,5.125c-14.948-9.549-35.491-10.656-52.657-0.855
	c-5.316,3.023-9.258,6.619-12.392,10.451v-21.084l-1.652-12.514l-0.494-2.268c-3.436-13.586-13.695-25.037-27.438-30.666
	l-0.121-0.051c-15.069-6.074-31.947-4.641-46.292,3.943c-15.285,9.041-23.108,24.014-23.108,44.482v42.967
	c-5.461-8.453-12.176-15.805-20.132-21.846c-21.447-16.262-50.198-21.734-83.12-15.84c-19.083,3.326-35.045,11.658-47.69,23.867
	c-0.205-0.395-0.41-0.867-0.627-1.264c-6.401-11.5-16.828-19.41-30.186-22.906c-22.29-6.109-50.595,1.459-62.265,41.314
	c0,0-1.905,6.438-4.485,15.273c-5.111-9.402-12.778-23.557-12.862-23.725c-1.375-3.414-2.652-6.4-3.918-8.764
	c0.121,0.145,0.833,0.916,0.833,0.916c-0.302-0.592-0.808-1.012-1.11-1.604c-0.506-0.869-1.314-1.832-1.856-2.615
	c-11.946-18.107-35.864-25.943-57.25-17.445c-20.663,7.775-32.646,25.957-32.646,47.342c0,6.727,1.181,13.74,3.64,20.879
	l0.627,1.748c0,0,42.434,86.447,54.731,111.5c-19.734,5.205-33.816,19.939-36.093,40.117c-0.242,1.941-0.35,3.859-0.35,5.775
	c0,12.852,5.316,25.133,15.093,34.127c14.852,13.709,37.938,18.229,65.025,12.705c29.427-5.809,46.376-23.555,58.227-61.18
	l18.046-56.717c5.895,23.879,16.576,39.516,26.726,49.484c14.587,14.432,41.313,30.395,85.52,24.436
	c32.875-4.59,55.635-19.322,67.895-36.586l0.808,4.146c3.507,12.359,13.019,23.291,25.797,29.148
	c13.358,6.15,28.849,6.064,42.422-0.301c7.089-3.074,13.08-7.955,17.746-14.021v17.879c0,29.584,17.105,42.145,27.305,47.018
	c13.296,6.676,29.209,7.209,43.108,1.193c13.08-5.666,22.809-16.457,26.642-29.598l0.591-1.988l1.748-12.211v-5.232
	c17.781,1.797,36.347-1.1,52.692-9.561c7.209-3.75,13.539-8.27,19.181-13.455h12.006c6.536,3.449,13.962,5.582,21.94,5.582
	c8.018,0,15.418-2.133,21.965-5.582h34.791c23.062,12.975,56.779,22.822,74.813,19.736c15.551-2.785,27.765-12.777,32.96-26.812
	l0.241-0.686c2.217-6.389,2.557-7.572,2.724-43.627c19.758,31.945,20.783,32.777,26.339,37.154
	c11.913,9.305,27.62,11.357,42.075,5.531c23.254-9.344,58.769-54.475,62.335-79.262c0.303-2.16,0.458-4.365,0.458-6.486
	C1086.18,753.597,1080.586,741.589,1070.568,733.574"/>
<path fill="#E4E4E4" d="M794.061,683.533c-5.628,9.027-7.991,37.418-6.039,56.283c0.676,6.223,1.796,11.406,3.436,14.504
	c2.267,4.279,6.053,6.857,10.38,6.992c2.735,0.145,4.448-0.338,56.466-17.07c0,0,23.146-7.377,23.23-7.412
	c5.774-1.473,9.669-6.766,10.029-13.539c0.387-6.943-3.218-13.068-9.125-15.299c0,0-16.287-6.643-16.322-6.643
	c-55.9-23.07-58.408-23.953-61.24-23.979C800.561,677.169,796.737,679.373,794.061,683.533"/>
<path fill="#E4E4E4" d="M919.12,855.355c0.918-2.641,1.012-4.424,1.159-59.084c0,0,0.132-24.156,0.17-24.422
	c0.372-5.885-3.463-11.297-9.742-13.695c-6.449-2.508-13.406-0.965-17.324,3.895c0,0-11.393,13.523-11.416,13.537
	c-39.191,46.016-40.818,48.125-41.771,50.873c-0.579,1.604-0.832,3.277-0.616,4.99c0.242,2.436,1.315,4.895,3.172,7.102
	c9.064,10.799,52.632,26.836,66.52,24.459C914.117,862.14,917.627,859.394,919.12,855.355"/>
<path fill="#E4E4E4" d="M1007.436,836.318c13.167-5.232,41.821-41.686,43.845-55.705c0.688-4.871-0.854-9.066-4.206-11.768
	c-2.194-1.65-3.895-2.289-55.877-19.383c0,0-22.819-7.523-23.107-7.656c-5.51-2.156-11.814-0.168-16.047,5.062
	c-4.399,5.379-5.074,12.418-1.542,17.783l9.162,14.949c30.873,50.125,33.222,53.645,35.439,55.416
	C998.552,837.683,1002.93,838.164,1007.436,836.318"/>
<path fill="#E4E4E4" d="M980.628,707.281c59.079-14.285,61.358-15.057,63.698-16.588c3.58-2.41,5.351-6.438,5.039-11.381
	c0-0.18,0.061-0.312,0-0.494c-1.508-14.49-26.931-52.234-39.445-58.357c-4.438-2.121-8.896-1.979-12.549,0.469
	c-2.292,1.533-3.967,3.727-35.6,47.016c0,0-14.297,19.48-14.477,19.65c-3.762,4.568-3.799,11.15-0.133,16.781
	c3.796,5.834,10.246,8.691,16.165,7.041c0,0-0.241,0.396-0.326,0.504C965.918,710.826,971.139,709.535,980.628,707.281"/>
<path fill="#E4E4E4" d="M921.292,658.48L921.292,658.48c-1.027-23.42-8.066-127.686-8.873-132.496
	c-1.231-4.388-4.642-7.511-9.561-8.74c-15.056-3.761-72.717,12.417-83.397,23.448c-3.447,3.556-4.689,7.968-3.665,11.887
	c1.664,3.435,26.257,42.071,44.255,70.243l28.836,45.568c10.584,17.143,19.18,14.479,22.001,13.6
	C913.684,681.121,922.268,678.433,921.292,658.48"/>
<path fill="#B03212" d="M798.798,671.695c-5.63,9.029-8.004,37.42-6.038,56.297c0.674,6.207,1.796,11.404,3.435,14.49
	c2.255,4.279,6.041,6.848,10.356,6.98c2.761,0.156,4.496-0.314,56.501-17.045c0,0,23.136-7.379,23.231-7.428
	c5.75-1.471,9.644-6.762,10.006-13.537c0.385-6.957-3.219-13.082-9.102-15.287c0,0-16.299-6.631-16.335-6.631
	c-55.912-23.084-58.419-23.988-61.229-24.014C805.296,665.341,801.463,667.525,798.798,671.695"/>
<path fill="#B03212" d="M923.87,843.505c0.905-2.631,1.014-4.4,1.157-59.084c0,0,0.12-24.146,0.158-24.387
	c0.349-5.906-3.461-11.309-9.752-13.719c-6.45-2.482-13.395-0.965-17.301,3.916c0,0-11.392,13.527-11.428,13.527
	c-39.204,46.002-40.819,48.139-41.783,50.861c-0.566,1.604-0.808,3.293-0.615,5.014c0.24,2.424,1.338,4.859,3.171,7.078
	c9.077,10.812,52.646,26.846,66.556,24.473C918.868,850.292,922.351,847.568,923.87,843.505"/>
<path fill="#B03212" d="M1012.198,824.494c13.128-5.244,41.784-41.699,43.796-55.707c0.7-4.895-0.83-9.09-4.183-11.779
	c-2.206-1.637-3.905-2.312-55.874-19.371c0,0-22.836-7.512-23.111-7.68c-5.509-2.135-11.814-0.156-16.058,5.088
	c-4.388,5.365-5.062,12.416-1.555,17.793l9.198,14.924c30.848,50.127,33.199,53.672,35.441,55.418
	C1003.278,825.867,1007.653,826.316,1012.198,824.494"/>
<path fill="#B03212" d="M985.351,695.443c59.096-14.297,61.362-15.057,63.712-16.586c3.558-2.426,5.365-6.451,5.039-11.369
	c0-0.17,0.038-0.314,0-0.496c-1.519-14.502-26.93-52.244-39.456-58.369c-4.436-2.121-8.885-1.979-12.536,0.469
	c-2.303,1.52-3.968,3.752-35.599,47.018c0,0-14.31,19.467-14.492,19.66c-3.761,4.57-3.809,11.139-0.119,16.758
	c3.798,5.859,10.247,8.703,16.154,7.053c0,0-0.242,0.408-0.314,0.494C970.658,698.986,975.877,697.685,985.351,695.443"/>
<path fill="#B03212" d="M926.016,646.656L926.016,646.656c-1.024-23.41-8.053-127.688-8.883-132.522
	c-1.206-4.376-4.594-7.498-9.524-8.728c-15.093-3.75-72.728,12.429-83.42,23.435c-3.426,3.58-4.69,7.98-3.665,11.886
	c1.686,3.46,26.255,42.073,44.241,70.28l28.86,45.545c10.572,17.131,19.19,14.467,22,13.602
	C918.42,669.271,926.993,666.63,926.016,646.656"/>
<path fill="#1C1C1A" d="M194.404,893.812c7.438,6.883,21.542,8.834,38.661,5.35c16.058-3.17,26.015-10.342,35.61-40.793
	l47.714-149.967c2.472-7.955,2.291-14.863-0.529-19.986c-2.303-4.137-6.136-6.943-11.537-8.355
	c-8.512-2.34-19.132-2.109-25.823,20.738l-22.507,76.598l-2.531,8.473l-47.667-87.967l-0.169-0.312c0,0-3.17-8.076-3.218-8.102
	c-3.219-6.438-12.646-11.031-22.254-7.221c-12.549,4.748-16.72,16.02-11.729,30.547c0,0,62.06,126.279,62.205,126.617
	c0,0,1.687,4.496,1.687,5.219c0,0,0.556,3.447,0.556,3.559c-0.109,4.867-1.748,8.945-4.654,11.705
	c-2.869,2.66-6.835,4.084-11.477,3.877c0,0-9.667-0.203-10.416-0.203c-9.946,1.232-16.19,6.922-17.19,15.746
	C188.424,885,190.256,889.992,194.404,893.812"/>
<path fill="#1C1C1A" d="M479.7,740.072c-2.134-21.662-10.5-38.564-24.207-48.957c-14.599-11.055-35.262-14.598-59.733-10.209
	c-30.668,5.305-49.077,27.219-53.308,63.443c-5.184,43.316,1.94,75.975,20.687,94.418c14.129,13.971,35.02,19.518,60.457,16.094
	c36.237-5.088,52.547-25.016,52.547-37.574c0-9.262-5.605-16.555-13.814-17.662c-4.714-0.941-8.68,0-17.481,7.857
	c-12.646,11.031-27.329,15.471-40.349,12.176c-9.897-2.52-17.648-9.363-21.132-18.697c0,0-1.567-6.195-1.483-5.52
	c-1.061-5.596-1.542-11.104,1.905-13.371l0.917-0.613h79.636c7.33,0,11.055-0.953,13.212-3.268
	C481.917,773.318,481.581,759.443,479.7,740.072 M438.881,751.632h-66.436c-1.796-1.291-2.664-3.52-1.35-10.139
	c0.869-3.471,1.76-6.607,4.425-10.982c0.855-1.326,1.748-2.664,2.603-4.016c4.871-6.133,11.441-10.064,18.927-11.838
	c23.351-5.701,39.649,6.162,42.289,26.426C440.617,749.896,439.786,751.632,438.881,751.632"/>
<path fill="#1C1C1A" d="M551.885,625.476c-6.316-2.557-13.417-1.857-19.649,1.855c-5.992,3.543-8.487,8.955-8.487,18.721v189.869
	c0,0,1.037,6.787,1.133,7.078c1.362,4.736,4.858,8.762,9.705,10.994c5.388,2.48,11.621,2.424,17.166-0.182
	c6.944-2.977,11.042-9.922,11.042-18.518V645.078c0,0-1.217-9.174-1.217-9.357C560.469,631.31,556.816,627.488,551.885,625.476"/>
<path fill="#1C1C1A" d="M704.094,678.929c-17.613-3.582-32.682-0.592-47.159,9.244c0,0-1.628,1.314-2.256,1.688l-1.289,0.664
	l-3.966,1.76l-1.12-4.436l-0.954-1.604l-0.337-1.014l-0.108-0.289c0,0-0.964-1.314-1.098-1.494
	c-4.159-6.473-15.467-9.475-25.677-3.629c-4.99,2.822-7.824,6.811-7.824,18.709v186.336c0,10.213,3.184,16.553,10.176,19.902
	c5.918,2.979,12.585,3.219,18.274,0.75c4.847-2.1,8.403-5.873,9.741-10.439l1.157-7.971v-32.246l-0.326-5.195l0.133-1.543
	l0.193-0.75l1.928-6.133l5.848,3.893c0,0,1.459,0.963,2.073,1.613l1.76,1.158c0.013,0.025,2.013,1.195,2.013,1.195
	c0.049,0.01,1.894,0.902,1.894,0.902c15.647,7.393,36.576,6.535,53.404-2.182c21.18-11.043,31.656-30.668,34.079-63.664
	C759.716,718.287,744.575,686.798,704.094,678.929 M702.166,818.357c-26.306,0-30.488-23.338-31.32-40.961
	c-0.049-0.064-0.35-10.32-0.35-10.32s0.301-7.633,0.301-7.934c1.713-30.475,8.029-42.492,24.088-45.822
	c10.812-2.529,19.07-1.312,25.243,3.664c9.305,7.5,13.416,23.342,13.044,49.812C732.881,797.767,727.528,818.357,702.166,818.357"/>
<path fill="#4B4B4B" d="M788.117,822.603c6.017,0,11.056,4.713,11.056,10.895c0,6.316-5.039,11.008-11.056,11.008
	c-6.003,0-11.042-4.691-11.042-10.9C777.075,827.316,782.114,822.603,788.117,822.603 M788.117,842.914
	c5.174,0,9.283-4.053,9.283-9.416c0-5.268-4.109-9.305-9.283-9.305c-5.146,0-9.269,4.037-9.269,9.412
	C778.849,838.861,782.971,842.914,788.117,842.914 M784.031,827.292h4.654c3.037,0,4.471,1.107,4.471,3.65
	c0,2.256-1.457,3.219-3.362,3.445l3.653,5.582h-1.905l-3.473-5.436h-2.278v5.436h-1.76V827.292z M785.791,832.945h2.183
	c1.771,0,3.412-0.084,3.412-2.1c0-1.77-1.495-1.963-2.846-1.963h-2.749V832.945z"/>
<path fill="#FFFFFF" d="M308.301,165.681h38.75c21.659,0,39.634,6.925,39.634,31.678c0,24.458-16.649,31.973-38.603,31.973h-16.796
	v40.666h-22.985V165.681z M331.286,209.883h15.323c8.104,0,16.208-2.799,16.208-12.524c0-10.755-10.903-12.229-19.744-12.229
	h-11.787V209.883z"/>
<path fill="#FFFFFF" d="M399.503,165.681h70.87v21.217h-47.885v19.449h45.233v21.217h-45.233v21.217h50.538v21.217h-73.522V165.681z
	"/>
<path fill="#FFFFFF" d="M534.759,163.029c32.562,0,56.283,21.364,56.283,54.81c0,33.446-23.721,54.811-56.283,54.811
	s-56.283-21.364-56.283-54.811C478.476,184.393,502.197,163.029,534.759,163.029z M534.759,251.433
	c19.596,0,32.415-14.145,32.415-33.594c0-19.448-12.818-33.593-32.415-33.593s-32.415,14.145-32.415,33.593
	C502.344,237.288,515.163,251.433,534.759,251.433z"/>
<path fill="#FFFFFF" d="M604.154,165.681h38.75c21.659,0,39.635,6.925,39.635,31.678c0,24.458-16.65,31.973-38.604,31.973h-16.797
	v40.666h-22.984V165.681z M627.139,209.883h15.324c8.104,0,16.207-2.799,16.207-12.524c0-10.755-10.903-12.229-19.744-12.229
	h-11.787V209.883z"/>
<path fill="#FFFFFF" d="M692.41,165.681h22.984v83.099h42.581v21.217H692.41V165.681z"/>
<path fill="#FFFFFF" d="M766.962,165.681h70.87v21.217h-47.885v19.449h45.232v21.217h-45.232v21.217h50.537v21.217h-73.522V165.681z
	"/>
<path fill="#FFFFFF" d="M219.857,318.347h25.17v91h46.629v23.234h-71.799V318.347z"/>
<path fill="#FFFFFF" d="M362.16,315.442c35.658,0,61.634,23.396,61.634,60.021s-25.977,60.021-61.634,60.021
	s-61.634-23.396-61.634-60.021S326.502,315.442,362.16,315.442z M362.16,412.25c21.459,0,35.496-15.489,35.496-36.787
	s-14.037-36.787-35.496-36.787s-35.496,15.489-35.496,36.787S340.701,412.25,362.16,412.25z"/>
<path fill="#FFFFFF" d="M433.79,318.347h28.72l28.235,74.865h0.323l28.72-74.865h26.945L499.619,432.58h-20.168L433.79,318.347z"/>
<path fill="#FFFFFF" d="M559.15,318.347h77.607v23.234H584.32v21.298h49.533v23.234H584.32v23.234h55.342v23.234H559.15V318.347z"/>
<path fill="#FFFFFF" d="M807.131,388.533c0,26.945-16.457,46.952-48.082,46.952c-31.785,0-48.242-20.007-48.242-46.952v-70.186
	h25.17v69.218c0,14.037,9.682,24.686,23.072,24.686c13.23,0,22.912-10.649,22.912-24.686v-69.218h25.17V388.533z"/>
<path fill="#FFFFFF" d="M888.444,346.26c-4.034-5.163-12.101-7.583-18.232-7.583c-7.099,0-16.941,3.227-16.941,11.778
	c0,20.814,52.599,7.422,52.599,47.436c0,25.493-20.49,37.594-44.047,37.594c-14.683,0-27.59-4.356-38.4-14.36l17.909-19.684
	c5.163,6.776,13.554,10.81,21.942,10.81c8.229,0,17.426-3.873,17.426-11.94c0-20.975-53.566-9.681-53.566-47.758
	c0-24.363,21.137-37.11,43.563-37.11c12.907,0,25.331,3.389,35.012,11.94L888.444,346.26z"/>
<path fill="#FFFFFF" d="M530.411,486.775c17.218,0,29.762,11.297,29.762,28.983s-12.544,28.983-29.762,28.983
	s-29.762-11.297-29.762-28.983S513.193,486.775,530.411,486.775z M530.411,533.521c10.362,0,17.141-7.479,17.141-17.764
	s-6.778-17.764-17.141-17.764s-17.141,7.479-17.141,17.764S520.049,533.521,530.411,533.521z"/>
<path fill="#FFFFFF" d="M567.11,488.177h16.517l23.452,38.333h0.155v-38.333h12.154v55.161h-15.894l-24.075-39.267h-0.156v39.267
	H567.11V488.177z"/>
</svg>
